HIERARCHY
ROOT joint_0
{
	OFFSET 0.000000 0.000000 0.000000
	CHANNELS 6 Xposition Yposition Zposition Zrotation Yrotation Xrotation 
	JOINT joint_1
	{
		OFFSET 0.000000 0.000000 0.000000
		CHANNELS 3 Zrotation Yrotation Xrotation
		JOINT joint_2
		{
			OFFSET 1.363060 -1.794630 0.839290
			CHANNELS 3 Zrotation Yrotation Xrotation
			JOINT joint_3
			{
				OFFSET 2.448110 -6.726130 0.000000
				CHANNELS 3 Zrotation Yrotation Xrotation
				JOINT joint_4
				{
					OFFSET 2.562200 -7.039590 0.000000
					CHANNELS 3 Zrotation Yrotation Xrotation
					JOINT joint_5
					{
						OFFSET 0.157640 -0.433110 2.322550
						CHANNELS 3 Zrotation Yrotation Xrotation
						End Site
						{
							OFFSET 0.000000 0.000000 0.000000
						}
					}
				}
			}
		}
	}
	JOINT joint_6
	{
		OFFSET 0.000000 0.000000 0.000000
		CHANNELS 3 Zrotation Yrotation Xrotation
		JOINT joint_7
		{
			OFFSET -1.305520 -1.794630 0.839290
			CHANNELS 3 Zrotation Yrotation Xrotation
			JOINT joint_8
			{
				OFFSET -2.542530 -6.985550 0.000000
				CHANNELS 3 Zrotation Yrotation Xrotation
				JOINT joint_9
				{
					OFFSET -2.568260 -7.056230 0.000000
					CHANNELS 3 Zrotation Yrotation Xrotation
					JOINT joint_10
					{
						OFFSET -0.164730 -0.452590 2.363150
						CHANNELS 3 Zrotation Yrotation Xrotation
						End Site
						{
							OFFSET 0.000000 0.000000 0.000000
						}
					}
				}
			}
		}
	}
	JOINT joint_11
	{
		OFFSET 0.000000 0.000000 0.000000
		CHANNELS 3 Zrotation Yrotation Xrotation
		JOINT joint_12
		{
			OFFSET 0.028270 2.035590 -0.193380
			CHANNELS 3 Zrotation Yrotation Xrotation
			JOINT joint_13
			{
				OFFSET 0.056720 2.048850 -0.042750
				CHANNELS 3 Zrotation Yrotation Xrotation
				JOINT joint_14
				{
					OFFSET 0.000000 0.000000 0.000000
					CHANNELS 3 Zrotation Yrotation Xrotation
					JOINT joint_15
					{
						OFFSET -0.054170 1.746240 0.172020
						CHANNELS 3 Zrotation Yrotation Xrotation
						JOINT joint_16
						{
							OFFSET 0.104070 1.761360 -0.123970
							CHANNELS 3 Zrotation Yrotation Xrotation
							End Site
							{
								OFFSET 0.000000 0.000000 0.000000
							}
						}
					}
				}
				JOINT joint_17
				{
					OFFSET 0.000000 0.000000 0.000000
					CHANNELS 3 Zrotation Yrotation Xrotation
					JOINT joint_18
					{
						OFFSET 3.362410 1.200890 -0.311210
						CHANNELS 3 Zrotation Yrotation Xrotation
						JOINT joint_19
						{
							OFFSET 4.983000 -0.000000 -0.000000
							CHANNELS 3 Zrotation Yrotation Xrotation
							JOINT joint_20
							{
								OFFSET 3.483560 -0.000000 -0.000000
								CHANNELS 3 Zrotation Yrotation Xrotation
								JOINT joint_21
								{
									OFFSET 0.000000 0.000000 0.000000
									CHANNELS 3 Zrotation Yrotation Xrotation
									JOINT joint_22
									{
										OFFSET 0.715260 -0.000000 -0.000000
										CHANNELS 3 Zrotation Yrotation Xrotation
										End Site
										{
											OFFSET 0.000000 0.000000 0.000000
										}
									}
								}
								JOINT joint_23
								{
									OFFSET 0.000000 0.000000 0.000000
									CHANNELS 3 Zrotation Yrotation Xrotation
									End Site
									{
										OFFSET 0.000000 0.000000 0.000000
									}
								}
							}
						}
					}
				}
				JOINT joint_24
				{
					OFFSET 0.000000 0.000000 0.000000
					CHANNELS 3 Zrotation Yrotation Xrotation
					JOINT joint_25
					{
						OFFSET -3.136600 1.374050 -0.404650
						CHANNELS 3 Zrotation Yrotation Xrotation
						JOINT joint_26
						{
							OFFSET -5.241900 -0.000000 -0.000000
							CHANNELS 3 Zrotation Yrotation Xrotation
							JOINT joint_27
							{
								OFFSET -3.444170 -0.000000 -0.000000
								CHANNELS 3 Zrotation Yrotation Xrotation
								JOINT joint_28
								{
									OFFSET 0.000000 0.000000 0.000000
									CHANNELS 3 Zrotation Yrotation Xrotation
									JOINT joint_29
									{
										OFFSET -0.622530 -0.000000 -0.000000
										CHANNELS 3 Zrotation Yrotation Xrotation
										End Site
										{
											OFFSET 0.000000 0.000000 0.000000
										}
									}
								}
								JOINT joint_30
								{
									OFFSET 0.000000 0.000000 0.000000
									CHANNELS 3 Zrotation Yrotation Xrotation
									End Site
									{
										OFFSET 0.000000 0.000000 0.000000
									}
								}
							}
						}
					}
				}
			}
		}
	}
}
MOTION
Frames: 4
Frame Time: 0.041667
9.372200 17.869300 -17.319800 -3.231600 -7.597000 -2.016800 -1.261321 -0.110452 0.370928 -18.418749 -3.229453 -2.587586 -0.867156 8.825231 20.516705 -0.218198 5.532396 -6.418776 -0.570625 -5.747704 -18.687005 -0.590997 0.702330 -0.773567 17.291724 7.789717 -13.722304 -0.367913 -13.672737 28.715673 1.136250 -11.294628 -6.237495 -0.118243 -0.269372 -4.177581 -0.296307 -1.456852 9.688007 2.393901 0.811062 -0.213797 2.722178 -1.061526 -0.587015 -4.790656 -3.730528 -12.912753 2.457843 -4.934543 22.889041 -0.021729 -1.980687 12.408383 -3.248209 -3.676630 0.313826 -69.061252 -5.287506 35.848019 85.265875 -39.994337 -58.484956 -0.538455 0.002643 -4.273398 31.761507 -10.684139 -5.722234 -6.766791 -0.285667 0.237664 -1.021095 19.461953 -4.932068 3.381443 4.847111 -0.613411 76.873793 -3.994676 19.841790 -29.215728 25.901761 -12.234909 0.124848 -0.683927 -2.459877 -16.432744 -5.838749 2.392696 7.526136 -0.493191 0.080611 7.926372 -36.722901 3.685858 
9.369200 17.865800 -17.321500 -3.209500 -7.535400 -2.086200 -1.050261 -0.111123 0.660806 -18.980273 -3.027924 -2.226085 -0.371137 8.824581 20.664507 -0.292959 5.891870 -5.709502 -0.619458 -5.803534 -19.057983 -0.623230 0.482860 -0.553915 17.326047 7.625281 -13.931657 -0.208765 -13.702151 28.378319 0.742926 -11.394904 -5.448872 -0.233372 -0.624683 -3.724234 -0.524234 -1.561466 9.821606 2.490325 0.962118 0.234268 2.581413 -1.093800 -0.578403 -5.539275 -3.928247 -12.939805 2.518027 -5.255437 23.384625 -0.187241 -1.957855 12.412307 -2.859314 -4.301444 0.382121 -67.775571 -5.352020 36.424788 93.958589 -41.220017 -65.783253 -0.172831 0.185532 -3.778120 33.880081 -14.300596 -7.285280 -6.712815 -0.347230 0.306203 1.114308 15.392243 -6.289809 3.429704 5.051679 -0.819009 76.955509 -4.888017 20.785683 -30.250467 25.596798 -13.290644 0.149547 -0.424931 -2.204785 -16.819455 -6.425489 2.828558 7.590766 -0.599347 0.147204 8.157345 -37.431178 3.612181 
9.373300 17.853600 -17.331700 -2.911000 -7.352700 -2.268800 -1.457916 -0.317645 0.096331 -18.442552 -2.798651 -1.491020 0.119331 8.632428 20.495294 -0.494692 5.873410 -5.295297 -0.681665 -5.794819 -19.189121 -0.503680 0.509933 -0.358755 17.690868 7.305064 -14.018509 -0.810318 -13.821001 27.934502 0.375576 -11.159794 -4.243894 -0.304883 -0.956743 -3.349155 -0.238589 -1.735733 10.602272 2.246700 0.966622 0.071316 2.689925 -1.110108 -0.073838 -5.321588 -3.957808 -13.029513 2.815534 -5.609868 23.641421 -0.309691 -1.982622 12.531894 -2.546684 -4.524257 0.608314 -66.838175 -5.519536 36.715166 101.140362 -42.749515 -71.987530 -0.419062 0.393651 -2.918873 35.859364 -17.424427 -8.850216 -6.687105 -0.393956 0.342250 2.977301 11.350396 -7.222287 3.238835 5.335465 -0.667857 76.510946 -5.836626 21.371170 -30.629973 25.194058 -13.298506 0.328848 -0.253825 -1.472826 -16.851748 -6.880111 2.876663 7.626158 -0.667957 0.185698 8.105702 -37.803939 3.368190 
9.367600 17.852600 -17.337500 -3.038200 -7.253000 -2.268600 -1.511175 -0.826213 0.339856 -17.101843 -2.320149 -1.320770 -0.104429 8.769448 20.666201 -0.267876 6.437176 -5.093680 -0.754874 -5.803831 -19.361191 -0.550808 0.644788 -1.064123 17.125494 6.871818 -14.106295 -0.954541 -14.121158 27.778279 0.457543 -10.567531 -4.515104 -0.353962 -1.197275 -3.088494 -0.059731 -1.723809 10.587720 2.094021 1.121916 -0.016033 2.593232 -1.054962 -0.017643 -4.701542 -4.126583 -12.699977 2.720723 -5.851588 23.318049 -0.392474 -2.023950 12.601103 -3.175283 -4.610492 0.635502 -65.866875 -5.162614 37.152339 107.764601 -43.894259 -78.116580 -0.307778 0.495570 -2.168166 38.524425 -20.654776 -10.347416 -6.658500 -0.452053 0.384759 4.750590 8.011004 -7.620557 3.148204 5.289764 -0.767177 76.803756 -6.638641 22.096903 -31.527986 25.698761 -13.600684 0.297135 -0.198195 -0.741461 -16.347815 -7.359071 3.342131 7.669615 -0.725861 0.231955 8.046977 -38.354473 3.566629 
